<svg width="270" height="270" viewBox="0 0 270 270" fill="none" xmlns="http://www.w3.org/2000/svg">
<g clip-path="url(#clip0_1_16)">
<rect width="270" height="270" rx="55" fill="#181926"/>
<path d="M130.392 220.072C119.981 220.072 110.083 218.28 100.696 214.696C91.3093 211.112 82.9467 205.821 75.608 198.824C68.44 191.656 62.7227 182.781 58.456 172.2C54.36 161.448 52.312 148.989 52.312 134.824C52.312 116.221 55.896 100.435 63.064 87.464C70.4027 74.3227 80.1307 64.3387 92.248 57.512C104.365 50.6853 117.933 47.272 132.952 47.272C143.533 47.272 153.176 49.4907 161.88 53.928C170.584 58.1947 177.752 63.144 183.384 68.776L160.856 93.864C157.101 90.28 152.92 87.5493 148.312 85.672C143.875 83.624 138.755 82.6 132.952 82.6C125.613 82.6 118.957 84.648 112.984 88.744C107.181 92.6693 102.573 98.472 99.16 106.152C95.9173 113.661 94.296 122.707 94.296 133.288C94.296 144.211 95.9173 153.512 99.16 161.192C102.573 168.872 107.352 174.76 113.496 178.856C119.64 182.781 126.723 184.744 134.744 184.744C140.376 184.744 145.581 183.464 150.36 180.904C155.139 178.173 159.405 174.845 163.16 170.92L185.688 195.496C178.861 203.688 170.755 209.832 161.368 213.928C151.981 218.024 141.656 220.072 130.392 220.072Z" fill="#B7BDF8"/>
<path d="M119.648 151V144.856H127.712V128.152H120.992V123.4C122.4 123.208 123.6 122.984 124.592 122.728C125.616 122.472 126.528 122.168 127.328 121.816C128.128 121.464 128.944 121.032 129.776 120.52H135.344V144.856H142.112V151H119.648ZM148.429 151V144.856H156.493V128.152H149.773V123.4C151.181 123.208 152.381 122.984 153.373 122.728C154.397 122.472 155.309 122.168 156.109 121.816C156.909 121.464 157.725 121.032 158.557 120.52H164.125V144.856H170.893V151H148.429ZM176.203 151V146.632C179.019 144.296 181.499 142.152 183.643 140.2C185.819 138.248 187.515 136.456 188.731 134.824C189.947 133.192 190.555 131.672 190.555 130.264C190.555 128.824 190.123 127.752 189.259 127.048C188.427 126.312 187.275 125.944 185.803 125.944C184.651 125.944 183.595 126.248 182.635 126.856C181.675 127.464 180.763 128.152 179.898 128.92L175.819 124.84C177.451 123.176 179.099 121.944 180.763 121.144C182.459 120.344 184.491 119.944 186.859 119.944C189.035 119.944 190.939 120.36 192.571 121.192C194.203 121.992 195.483 123.144 196.411 124.648C197.339 126.12 197.802 127.848 197.802 129.832C197.802 131.496 197.291 133.192 196.267 134.92C195.243 136.648 193.915 138.36 192.283 140.056C190.683 141.752 188.971 143.384 187.147 144.952C188.011 144.856 188.955 144.776 189.979 144.712C191.003 144.616 191.899 144.568 192.667 144.568H199.339V151H176.203ZM216.744 151.576C214.376 151.576 212.296 150.968 210.504 149.752C208.744 148.536 207.368 146.744 206.376 144.376C205.384 142.008 204.888 139.096 204.888 135.64C204.888 130.424 205.976 126.504 208.152 123.88C210.328 121.256 213.192 119.944 216.744 119.944C220.296 119.944 223.16 121.256 225.336 123.88C227.512 126.504 228.6 130.424 228.6 135.64C228.6 139.096 228.104 142.008 227.112 144.376C226.12 146.744 224.728 148.536 222.936 149.752C221.176 150.968 219.112 151.576 216.744 151.576ZM216.744 145.672C217.672 145.672 218.52 145.384 219.288 144.808C220.056 144.2 220.664 143.176 221.112 141.736C221.592 140.264 221.832 138.232 221.832 135.64C221.832 133.048 221.592 131.048 221.112 129.64C220.664 128.232 220.056 127.256 219.288 126.712C218.52 126.136 217.672 125.848 216.744 125.848C215.816 125.848 214.968 126.136 214.2 126.712C213.432 127.256 212.808 128.232 212.328 129.64C211.88 131.048 211.656 133.048 211.656 135.64C211.656 138.232 211.88 140.264 212.328 141.736C212.808 143.176 213.432 144.2 214.2 144.808C214.968 145.384 215.816 145.672 216.744 145.672ZM216.744 139.336C215.688 139.336 214.792 139 214.056 138.328C213.352 137.624 213 136.712 213 135.592C213 134.472 213.352 133.576 214.056 132.904C214.792 132.2 215.688 131.848 216.744 131.848C217.832 131.848 218.728 132.2 219.432 132.904C220.136 133.576 220.488 134.472 220.488 135.592C220.488 136.712 220.136 137.624 219.432 138.328C218.728 139 217.832 139.336 216.744 139.336Z" fill="#B7BDF8"/>
</g>
<defs>
<clipPath id="clip0_1_16">
<rect width="270" height="270" rx="55" fill="white"/>
</clipPath>
</defs>
</svg>
